<mxfile host="app.diagrams.net" modified="2024-03-05T16:45:05.897Z" agent="Mozilla/5.0 (Macintosh; Intel Mac OS X 10_15_7) AppleWebKit/537.36 (KHTML, like Gecko) Chrome/122.0.0.0 Safari/537.36" etag="Lj7Wm6ZoJibgBFZPyQEE" version="24.0.1" type="github">
  <diagram name="Page-1" id="bxVXwwxgnKXuj8-oZw0f">
    <mxGraphModel dx="986" dy="846" grid="1" gridSize="10" guides="1" tooltips="1" connect="1" arrows="1" fold="1" page="1" pageScale="1" pageWidth="827" pageHeight="1169" math="0" shadow="0">
      <root>
        <mxCell id="0" />
        <mxCell id="1" parent="0" />
        <mxCell id="92j0LhXUEq1OtmHNV9a6-1" value="Client" style="swimlane;fontStyle=0;childLayout=stackLayout;horizontal=1;startSize=30;horizontalStack=0;resizeParent=1;resizeParentMax=0;resizeLast=0;collapsible=1;marginBottom=0;whiteSpace=wrap;html=1;" vertex="1" parent="1">
          <mxGeometry x="10" y="10" width="160" height="170" as="geometry" />
        </mxCell>
        <mxCell id="92j0LhXUEq1OtmHNV9a6-2" value="- id_client :&lt;span style=&quot;white-space: pre;&quot;&gt;&#x9;&lt;/span&gt;&lt;span style=&quot;white-space: pre;&quot;&gt;&#x9;&lt;/span&gt;&amp;nbsp; &amp;nbsp; &amp;nbsp; &amp;nbsp; &amp;nbsp;int&lt;div&gt;- nom_client :&amp;nbsp; &amp;nbsp; &amp;nbsp; &amp;nbsp; &amp;nbsp; &amp;nbsp; &amp;nbsp; string&lt;br&gt;&lt;/div&gt;&lt;div&gt;- prÃ©nom_client :&amp;nbsp; &amp;nbsp; &amp;nbsp; &amp;nbsp; &amp;nbsp;string&lt;br&gt;&lt;/div&gt;&lt;div&gt;- email_client :&amp;nbsp; &amp;nbsp; &amp;nbsp; &amp;nbsp; &amp;nbsp; &amp;nbsp; string&lt;/div&gt;&lt;div&gt;- adresse_client :&amp;nbsp; &amp;nbsp; &amp;nbsp; &amp;nbsp; string&lt;/div&gt;" style="text;strokeColor=none;fillColor=none;align=left;verticalAlign=middle;spacingLeft=4;spacingRight=4;overflow=hidden;points=[[0,0.5],[1,0.5]];portConstraint=eastwest;rotatable=0;whiteSpace=wrap;html=1;" vertex="1" parent="92j0LhXUEq1OtmHNV9a6-1">
          <mxGeometry y="30" width="160" height="140" as="geometry" />
        </mxCell>
        <mxCell id="92j0LhXUEq1OtmHNV9a6-5" value="Inscription" style="swimlane;fontStyle=0;childLayout=stackLayout;horizontal=1;startSize=30;horizontalStack=0;resizeParent=1;resizeParentMax=0;resizeLast=0;collapsible=1;marginBottom=0;whiteSpace=wrap;html=1;" vertex="1" parent="1">
          <mxGeometry x="330" y="10" width="160" height="60" as="geometry" />
        </mxCell>
        <mxCell id="92j0LhXUEq1OtmHNV9a6-6" value="- numero_inscription :&amp;nbsp; &amp;nbsp; &amp;nbsp;int" style="text;strokeColor=none;fillColor=none;align=left;verticalAlign=middle;spacingLeft=4;spacingRight=4;overflow=hidden;points=[[0,0.5],[1,0.5]];portConstraint=eastwest;rotatable=0;whiteSpace=wrap;html=1;" vertex="1" parent="92j0LhXUEq1OtmHNV9a6-5">
          <mxGeometry y="30" width="160" height="30" as="geometry" />
        </mxCell>
        <mxCell id="92j0LhXUEq1OtmHNV9a6-9" value="Commande" style="swimlane;fontStyle=0;childLayout=stackLayout;horizontal=1;startSize=30;horizontalStack=0;resizeParent=1;resizeParentMax=0;resizeLast=0;collapsible=1;marginBottom=0;whiteSpace=wrap;html=1;" vertex="1" parent="1">
          <mxGeometry x="330" y="120" width="160" height="60" as="geometry" />
        </mxCell>
        <mxCell id="92j0LhXUEq1OtmHNV9a6-10" value="- numero_commande :&amp;nbsp; &amp;nbsp; int" style="text;strokeColor=none;fillColor=none;align=left;verticalAlign=middle;spacingLeft=4;spacingRight=4;overflow=hidden;points=[[0,0.5],[1,0.5]];portConstraint=eastwest;rotatable=0;whiteSpace=wrap;html=1;" vertex="1" parent="92j0LhXUEq1OtmHNV9a6-9">
          <mxGeometry y="30" width="160" height="30" as="geometry" />
        </mxCell>
        <mxCell id="92j0LhXUEq1OtmHNV9a6-13" value="" style="endArrow=classic;html=1;rounded=0;exitX=1.012;exitY=0.133;exitDx=0;exitDy=0;exitPerimeter=0;entryX=-0.004;entryY=0.644;entryDx=0;entryDy=0;entryPerimeter=0;" edge="1" parent="1" source="92j0LhXUEq1OtmHNV9a6-2" target="92j0LhXUEq1OtmHNV9a6-6">
          <mxGeometry width="50" height="50" relative="1" as="geometry">
            <mxPoint x="280" y="90" as="sourcePoint" />
            <mxPoint x="260" y="10" as="targetPoint" />
          </mxGeometry>
        </mxCell>
        <mxCell id="92j0LhXUEq1OtmHNV9a6-25" value="1..1" style="edgeLabel;html=1;align=center;verticalAlign=middle;resizable=0;points=[];" vertex="1" connectable="0" parent="92j0LhXUEq1OtmHNV9a6-13">
          <mxGeometry x="-0.4137" y="-2" relative="1" as="geometry">
            <mxPoint x="-30" y="-14" as="offset" />
          </mxGeometry>
        </mxCell>
        <mxCell id="92j0LhXUEq1OtmHNV9a6-26" value="1..1" style="edgeLabel;html=1;align=center;verticalAlign=middle;resizable=0;points=[];" vertex="1" connectable="0" parent="92j0LhXUEq1OtmHNV9a6-13">
          <mxGeometry x="0.3451" relative="1" as="geometry">
            <mxPoint x="33" y="-11" as="offset" />
          </mxGeometry>
        </mxCell>
        <mxCell id="92j0LhXUEq1OtmHNV9a6-27" value="" style="endArrow=classic;html=1;rounded=0;entryX=0;entryY=0.5;entryDx=0;entryDy=0;" edge="1" parent="1" target="92j0LhXUEq1OtmHNV9a6-10">
          <mxGeometry width="50" height="50" relative="1" as="geometry">
            <mxPoint x="170" y="165" as="sourcePoint" />
            <mxPoint x="330" y="160" as="targetPoint" />
          </mxGeometry>
        </mxCell>
        <mxCell id="92j0LhXUEq1OtmHNV9a6-31" value="1..1" style="edgeLabel;html=1;align=center;verticalAlign=middle;resizable=0;points=[];" vertex="1" connectable="0" parent="92j0LhXUEq1OtmHNV9a6-27">
          <mxGeometry x="-0.2451" y="3" relative="1" as="geometry">
            <mxPoint x="-41" y="-12" as="offset" />
          </mxGeometry>
        </mxCell>
        <mxCell id="92j0LhXUEq1OtmHNV9a6-32" value="1..1" style="edgeLabel;html=1;align=center;verticalAlign=middle;resizable=0;points=[];" vertex="1" connectable="0" parent="92j0LhXUEq1OtmHNV9a6-27">
          <mxGeometry x="0.4367" relative="1" as="geometry">
            <mxPoint x="25" y="-15" as="offset" />
          </mxGeometry>
        </mxCell>
        <mxCell id="92j0LhXUEq1OtmHNV9a6-33" value="Paiement" style="swimlane;fontStyle=0;childLayout=stackLayout;horizontal=1;startSize=30;horizontalStack=0;resizeParent=1;resizeParentMax=0;resizeLast=0;collapsible=1;marginBottom=0;whiteSpace=wrap;html=1;" vertex="1" parent="1">
          <mxGeometry x="620" y="120" width="150" height="60" as="geometry" />
        </mxCell>
        <mxCell id="92j0LhXUEq1OtmHNV9a6-34" value="- numero_paiement :&amp;nbsp; &amp;nbsp;int" style="text;strokeColor=none;fillColor=none;align=left;verticalAlign=middle;spacingLeft=4;spacingRight=4;overflow=hidden;points=[[0,0.5],[1,0.5]];portConstraint=eastwest;rotatable=0;whiteSpace=wrap;html=1;" vertex="1" parent="92j0LhXUEq1OtmHNV9a6-33">
          <mxGeometry y="30" width="150" height="30" as="geometry" />
        </mxCell>
        <mxCell id="92j0LhXUEq1OtmHNV9a6-37" value="" style="endArrow=classic;html=1;rounded=0;entryX=1;entryY=0.5;entryDx=0;entryDy=0;exitX=0;exitY=0.5;exitDx=0;exitDy=0;" edge="1" parent="1" source="92j0LhXUEq1OtmHNV9a6-34" target="92j0LhXUEq1OtmHNV9a6-10">
          <mxGeometry width="50" height="50" relative="1" as="geometry">
            <mxPoint x="420" y="240" as="sourcePoint" />
            <mxPoint x="470" y="190" as="targetPoint" />
          </mxGeometry>
        </mxCell>
        <mxCell id="92j0LhXUEq1OtmHNV9a6-38" value="1..1" style="edgeLabel;html=1;align=center;verticalAlign=middle;resizable=0;points=[];" vertex="1" connectable="0" parent="92j0LhXUEq1OtmHNV9a6-37">
          <mxGeometry x="0.017" y="2" relative="1" as="geometry">
            <mxPoint x="51" y="-17" as="offset" />
          </mxGeometry>
        </mxCell>
        <mxCell id="92j0LhXUEq1OtmHNV9a6-39" value="1..1" style="edgeLabel;html=1;align=center;verticalAlign=middle;resizable=0;points=[];" vertex="1" connectable="0" parent="92j0LhXUEq1OtmHNV9a6-37">
          <mxGeometry x="-0.2143" y="-1" relative="1" as="geometry">
            <mxPoint x="-65" y="-14" as="offset" />
          </mxGeometry>
        </mxCell>
        <mxCell id="92j0LhXUEq1OtmHNV9a6-40" value="Film" style="swimlane;fontStyle=0;childLayout=stackLayout;horizontal=1;startSize=30;horizontalStack=0;resizeParent=1;resizeParentMax=0;resizeLast=0;collapsible=1;marginBottom=0;whiteSpace=wrap;html=1;" vertex="1" parent="1">
          <mxGeometry x="20" y="330" width="140" height="60" as="geometry" />
        </mxCell>
        <mxCell id="92j0LhXUEq1OtmHNV9a6-41" value="- titre_film :&amp;nbsp; &amp;nbsp; &amp;nbsp; &amp;nbsp; &amp;nbsp; &amp;nbsp; string" style="text;strokeColor=none;fillColor=none;align=left;verticalAlign=middle;spacingLeft=4;spacingRight=4;overflow=hidden;points=[[0,0.5],[1,0.5]];portConstraint=eastwest;rotatable=0;whiteSpace=wrap;html=1;" vertex="1" parent="92j0LhXUEq1OtmHNV9a6-40">
          <mxGeometry y="30" width="140" height="30" as="geometry" />
        </mxCell>
        <mxCell id="92j0LhXUEq1OtmHNV9a6-44" value="Administrateur" style="swimlane;fontStyle=0;childLayout=stackLayout;horizontal=1;startSize=30;horizontalStack=0;resizeParent=1;resizeParentMax=0;resizeLast=0;collapsible=1;marginBottom=0;whiteSpace=wrap;html=1;" vertex="1" parent="1">
          <mxGeometry x="340" y="330" width="140" height="60" as="geometry" />
        </mxCell>
        <mxCell id="92j0LhXUEq1OtmHNV9a6-45" value="- id_administrateur :&amp;nbsp; &amp;nbsp;int" style="text;strokeColor=none;fillColor=none;align=left;verticalAlign=middle;spacingLeft=4;spacingRight=4;overflow=hidden;points=[[0,0.5],[1,0.5]];portConstraint=eastwest;rotatable=0;whiteSpace=wrap;html=1;" vertex="1" parent="92j0LhXUEq1OtmHNV9a6-44">
          <mxGeometry y="30" width="140" height="30" as="geometry" />
        </mxCell>
        <mxCell id="92j0LhXUEq1OtmHNV9a6-48" value="" style="endArrow=classic;html=1;rounded=0;exitX=0.42;exitY=0.004;exitDx=0;exitDy=0;exitPerimeter=0;" edge="1" parent="1" source="92j0LhXUEq1OtmHNV9a6-44">
          <mxGeometry width="50" height="50" relative="1" as="geometry">
            <mxPoint x="380" y="420" as="sourcePoint" />
            <mxPoint x="399" y="180" as="targetPoint" />
          </mxGeometry>
        </mxCell>
        <mxCell id="92j0LhXUEq1OtmHNV9a6-49" value="1..1" style="edgeLabel;html=1;align=center;verticalAlign=middle;resizable=0;points=[];" vertex="1" connectable="0" parent="92j0LhXUEq1OtmHNV9a6-48">
          <mxGeometry x="0.2172" y="-3" relative="1" as="geometry">
            <mxPoint x="12" y="81" as="offset" />
          </mxGeometry>
        </mxCell>
        <mxCell id="92j0LhXUEq1OtmHNV9a6-50" value="-" style="edgeLabel;html=1;align=center;verticalAlign=middle;resizable=0;points=[];" vertex="1" connectable="0" parent="92j0LhXUEq1OtmHNV9a6-48">
          <mxGeometry x="0.6609" y="-2" relative="1" as="geometry">
            <mxPoint x="13" y="-5" as="offset" />
          </mxGeometry>
        </mxCell>
        <mxCell id="92j0LhXUEq1OtmHNV9a6-51" value="" style="endArrow=classic;html=1;rounded=0;exitX=0.444;exitY=0.999;exitDx=0;exitDy=0;exitPerimeter=0;entryX=0.436;entryY=0.012;entryDx=0;entryDy=0;entryPerimeter=0;" edge="1" parent="1" source="92j0LhXUEq1OtmHNV9a6-2" target="92j0LhXUEq1OtmHNV9a6-40">
          <mxGeometry width="50" height="50" relative="1" as="geometry">
            <mxPoint x="380" y="480" as="sourcePoint" />
            <mxPoint x="430" y="430" as="targetPoint" />
          </mxGeometry>
        </mxCell>
        <mxCell id="92j0LhXUEq1OtmHNV9a6-52" value="1..1" style="edgeLabel;html=1;align=center;verticalAlign=middle;resizable=0;points=[];" vertex="1" connectable="0" parent="92j0LhXUEq1OtmHNV9a6-51">
          <mxGeometry x="-0.0584" y="-2" relative="1" as="geometry">
            <mxPoint x="21" y="-60" as="offset" />
          </mxGeometry>
        </mxCell>
        <mxCell id="92j0LhXUEq1OtmHNV9a6-53" value="-" style="edgeLabel;html=1;align=center;verticalAlign=middle;resizable=0;points=[];" vertex="1" connectable="0" parent="92j0LhXUEq1OtmHNV9a6-51">
          <mxGeometry x="0.3939" relative="1" as="geometry">
            <mxPoint x="9" y="25" as="offset" />
          </mxGeometry>
        </mxCell>
        <mxCell id="92j0LhXUEq1OtmHNV9a6-54" value="Date" style="swimlane;fontStyle=0;childLayout=stackLayout;horizontal=1;startSize=30;horizontalStack=0;resizeParent=1;resizeParentMax=0;resizeLast=0;collapsible=1;marginBottom=0;whiteSpace=wrap;html=1;" vertex="1" parent="1">
          <mxGeometry x="20" y="520" width="140" height="60" as="geometry" />
        </mxCell>
        <mxCell id="92j0LhXUEq1OtmHNV9a6-55" value="- date :&amp;nbsp; &amp;nbsp; &amp;nbsp; &amp;nbsp; &amp;nbsp; &amp;nbsp; &amp;nbsp; &amp;nbsp; &amp;nbsp; &amp;nbsp; date" style="text;strokeColor=none;fillColor=none;align=left;verticalAlign=middle;spacingLeft=4;spacingRight=4;overflow=hidden;points=[[0,0.5],[1,0.5]];portConstraint=eastwest;rotatable=0;whiteSpace=wrap;html=1;" vertex="1" parent="92j0LhXUEq1OtmHNV9a6-54">
          <mxGeometry y="30" width="140" height="30" as="geometry" />
        </mxCell>
        <mxCell id="92j0LhXUEq1OtmHNV9a6-58" value="SÃ©ance" style="swimlane;fontStyle=0;childLayout=stackLayout;horizontal=1;startSize=30;horizontalStack=0;resizeParent=1;resizeParentMax=0;resizeLast=0;collapsible=1;marginBottom=0;whiteSpace=wrap;html=1;" vertex="1" parent="1">
          <mxGeometry x="20" y="680" width="140" height="120" as="geometry" />
        </mxCell>
        <mxCell id="92j0LhXUEq1OtmHNV9a6-59" value="- date_sÃ©ance :&amp;nbsp; &amp;nbsp; &amp;nbsp; &amp;nbsp;date&lt;div&gt;- horaire :&amp;nbsp; &amp;nbsp; &amp;nbsp; &amp;nbsp; &amp;nbsp; &amp;nbsp; &amp;nbsp; &amp;nbsp; date&lt;/div&gt;&lt;div&gt;- titre_film :&amp;nbsp; &amp;nbsp; &amp;nbsp; &amp;nbsp; &amp;nbsp; &amp;nbsp; string&lt;/div&gt;&lt;div&gt;- nombre_place :&amp;nbsp; &amp;nbsp; &amp;nbsp; &amp;nbsp;int&lt;/div&gt;&lt;div&gt;- lieu :&amp;nbsp; &amp;nbsp; &amp;nbsp; &amp;nbsp; &amp;nbsp; &amp;nbsp; &amp;nbsp; &amp;nbsp; &amp;nbsp; &amp;nbsp; string&lt;/div&gt;" style="text;strokeColor=none;fillColor=none;align=left;verticalAlign=middle;spacingLeft=4;spacingRight=4;overflow=hidden;points=[[0,0.5],[1,0.5]];portConstraint=eastwest;rotatable=0;whiteSpace=wrap;html=1;" vertex="1" parent="92j0LhXUEq1OtmHNV9a6-58">
          <mxGeometry y="30" width="140" height="90" as="geometry" />
        </mxCell>
        <mxCell id="92j0LhXUEq1OtmHNV9a6-62" value="Objet" style="swimlane;fontStyle=0;childLayout=stackLayout;horizontal=1;startSize=30;horizontalStack=0;resizeParent=1;resizeParentMax=0;resizeLast=0;collapsible=1;marginBottom=0;whiteSpace=wrap;html=1;" vertex="1" parent="1">
          <mxGeometry x="340" y="520" width="140" height="60" as="geometry" />
        </mxCell>
        <mxCell id="92j0LhXUEq1OtmHNV9a6-63" value="- description :&amp;nbsp; &amp;nbsp; &amp;nbsp; &amp;nbsp; string" style="text;strokeColor=none;fillColor=none;align=left;verticalAlign=middle;spacingLeft=4;spacingRight=4;overflow=hidden;points=[[0,0.5],[1,0.5]];portConstraint=eastwest;rotatable=0;whiteSpace=wrap;html=1;" vertex="1" parent="92j0LhXUEq1OtmHNV9a6-62">
          <mxGeometry y="30" width="140" height="30" as="geometry" />
        </mxCell>
        <mxCell id="92j0LhXUEq1OtmHNV9a6-66" value="" style="endArrow=classic;html=1;rounded=0;exitX=0.416;exitY=0.949;exitDx=0;exitDy=0;exitPerimeter=0;entryX=0.416;entryY=-0.03;entryDx=0;entryDy=0;entryPerimeter=0;" edge="1" parent="1">
          <mxGeometry width="50" height="50" relative="1" as="geometry">
            <mxPoint x="398.24" y="390.27000000000004" as="sourcePoint" />
            <mxPoint x="398.24" y="520" as="targetPoint" />
          </mxGeometry>
        </mxCell>
        <mxCell id="92j0LhXUEq1OtmHNV9a6-67" value="1..1" style="edgeLabel;html=1;align=center;verticalAlign=middle;resizable=0;points=[];" vertex="1" connectable="0" parent="92j0LhXUEq1OtmHNV9a6-66">
          <mxGeometry x="-0.1922" y="-1" relative="1" as="geometry">
            <mxPoint x="17" y="-43" as="offset" />
          </mxGeometry>
        </mxCell>
        <mxCell id="92j0LhXUEq1OtmHNV9a6-68" value="-" style="edgeLabel;html=1;align=center;verticalAlign=middle;resizable=0;points=[];" vertex="1" connectable="0" parent="92j0LhXUEq1OtmHNV9a6-66">
          <mxGeometry x="0.0776" relative="1" as="geometry">
            <mxPoint x="16" y="40" as="offset" />
          </mxGeometry>
        </mxCell>
        <mxCell id="92j0LhXUEq1OtmHNV9a6-69" value="" style="endArrow=classic;html=1;rounded=0;exitX=0.423;exitY=0.952;exitDx=0;exitDy=0;exitPerimeter=0;entryX=0.414;entryY=-0.002;entryDx=0;entryDy=0;entryPerimeter=0;" edge="1" parent="1">
          <mxGeometry width="50" height="50" relative="1" as="geometry">
            <mxPoint x="79.21999999999997" y="390.00000000000006" as="sourcePoint" />
            <mxPoint x="77.95999999999998" y="521.32" as="targetPoint" />
          </mxGeometry>
        </mxCell>
        <mxCell id="92j0LhXUEq1OtmHNV9a6-76" value="-" style="edgeLabel;html=1;align=center;verticalAlign=middle;resizable=0;points=[];" vertex="1" connectable="0" parent="92j0LhXUEq1OtmHNV9a6-69">
          <mxGeometry x="-0.4631" relative="1" as="geometry">
            <mxPoint x="11" y="-25" as="offset" />
          </mxGeometry>
        </mxCell>
        <mxCell id="92j0LhXUEq1OtmHNV9a6-77" value="-" style="edgeLabel;html=1;align=center;verticalAlign=middle;resizable=0;points=[];" vertex="1" connectable="0" parent="92j0LhXUEq1OtmHNV9a6-69">
          <mxGeometry x="0.5839" relative="1" as="geometry">
            <mxPoint x="12" y="6" as="offset" />
          </mxGeometry>
        </mxCell>
        <mxCell id="92j0LhXUEq1OtmHNV9a6-70" value="" style="endArrow=classic;html=1;rounded=0;exitX=0.423;exitY=1.014;exitDx=0;exitDy=0;exitPerimeter=0;entryX=0.427;entryY=0.004;entryDx=0;entryDy=0;entryPerimeter=0;" edge="1" parent="1" source="92j0LhXUEq1OtmHNV9a6-55" target="92j0LhXUEq1OtmHNV9a6-58">
          <mxGeometry width="50" height="50" relative="1" as="geometry">
            <mxPoint x="180" y="660" as="sourcePoint" />
            <mxPoint x="230" y="610" as="targetPoint" />
          </mxGeometry>
        </mxCell>
        <mxCell id="92j0LhXUEq1OtmHNV9a6-71" value="1..1" style="edgeLabel;html=1;align=center;verticalAlign=middle;resizable=0;points=[];" vertex="1" connectable="0" parent="92j0LhXUEq1OtmHNV9a6-70">
          <mxGeometry x="-0.1688" y="1" relative="1" as="geometry">
            <mxPoint x="20" y="-22" as="offset" />
          </mxGeometry>
        </mxCell>
        <mxCell id="92j0LhXUEq1OtmHNV9a6-72" value="-" style="edgeLabel;html=1;align=center;verticalAlign=middle;resizable=0;points=[];" vertex="1" connectable="0" parent="92j0LhXUEq1OtmHNV9a6-70">
          <mxGeometry x="0.4106" y="-2" relative="1" as="geometry">
            <mxPoint x="12" y="9" as="offset" />
          </mxGeometry>
        </mxCell>
        <mxCell id="92j0LhXUEq1OtmHNV9a6-74" value="" style="endArrow=block;endSize=16;endFill=0;html=1;rounded=0;entryX=0;entryY=0.5;entryDx=0;entryDy=0;" edge="1" parent="1" target="92j0LhXUEq1OtmHNV9a6-63">
          <mxGeometry width="160" relative="1" as="geometry">
            <mxPoint x="160" y="390" as="sourcePoint" />
            <mxPoint x="320" y="390" as="targetPoint" />
          </mxGeometry>
        </mxCell>
        <mxCell id="92j0LhXUEq1OtmHNV9a6-75" value="" style="endArrow=block;endSize=16;endFill=0;html=1;rounded=0;exitX=1.014;exitY=0.378;exitDx=0;exitDy=0;exitPerimeter=0;entryX=0.45;entryY=1.1;entryDx=0;entryDy=0;entryPerimeter=0;" edge="1" parent="1" source="92j0LhXUEq1OtmHNV9a6-59" target="92j0LhXUEq1OtmHNV9a6-63">
          <mxGeometry width="160" relative="1" as="geometry">
            <mxPoint x="100" y="550" as="sourcePoint" />
            <mxPoint x="260" y="550" as="targetPoint" />
          </mxGeometry>
        </mxCell>
      </root>
    </mxGraphModel>
  </diagram>
</mxfile>
